<svg width="1700" height="980" viewBox="0 0 1700 980" fill="none" xmlns="http://www.w3.org/2000/svg">
  <defs>
    <linearGradient id="bg2" x1="140" y1="40" x2="1500" y2="920" gradientUnits="userSpaceOnUse">
      <stop stop-color="#171C25"/>
      <stop offset="1" stop-color="#080C12"/>
    </linearGradient>
    <linearGradient id="cardDark" x1="52" y1="150" x2="760" y2="730" gradientUnits="userSpaceOnUse">
      <stop stop-color="#2B2E36"/>
      <stop offset="1" stop-color="#1F222A"/>
    </linearGradient>
    <linearGradient id="cardGreen" x1="850" y1="84" x2="1600" y2="760" gradientUnits="userSpaceOnUse">
      <stop stop-color="#102D25"/>
      <stop offset="1" stop-color="#0A1210"/>
    </linearGradient>
    <filter id="glow2" x="730" y="-30" width="980" height="1040" filterUnits="userSpaceOnUse" color-interpolation-filters="sRGB">
      <feGaussianBlur stdDeviation="34"/>
    </filter>
  </defs>

  <rect width="1700" height="980" fill="url(#bg2)"/>

  <g opacity="0.13" stroke="#DEE5F1" stroke-width="2">
    <path d="M0 48H1700"/>
    <path d="M0 230H1700"/>
    <path d="M0 412H1700"/>
    <path d="M0 594H1700"/>
    <path d="M0 776H1700"/>
    <path d="M280 0V980"/>
    <path d="M520 0V980"/>
    <path d="M850 0V980"/>
    <path d="M1220 0V980"/>
  </g>

  <rect x="820" y="84" width="780" height="800" rx="30" fill="#2BFF9C" opacity="0.18" filter="url(#glow2)"/>

  <rect x="54" y="145" width="742" height="605" rx="30" fill="url(#cardDark)"/>
  <rect x="867" y="84" width="742" height="800" rx="30" fill="url(#cardGreen)" stroke="#2EF09A" stroke-opacity="0.42" stroke-width="3"/>

  <g stroke="#C7CEDA" stroke-width="9" stroke-linecap="round" stroke-linejoin="round" opacity="0.95">
    <path d="M360 265H442L492 314V504C492 519 480 531 465 531H360C345 531 333 519 333 504V292C333 277 345 265 360 265Z"/>
    <path d="M442 265V316H492"/>
  </g>

  <g transform="translate(1032 140)">
    <path d="M210 0L402 114L212 226L20 114L210 0Z" fill="#29F59B" fill-opacity="0.92" stroke="#B9FFE0" stroke-width="4"/>
    <path d="M212 23L368 114L212 204L56 114L212 23Z" fill="#24E993" fill-opacity="0.8"/>
    <path d="M124 77H198" stroke="#DFFDED" stroke-width="6" stroke-linecap="round"/>
    <path d="M146 92H220" stroke="#DFFDED" stroke-width="6" stroke-linecap="round"/>
    <path d="M168 107H242" stroke="#DFFDED" stroke-width="6" stroke-linecap="round"/>
    <path d="M168 165C210 126 262 114 316 131" stroke="#FFFFFF" stroke-width="6" stroke-linecap="round"/>
    <path d="M172 165L199 149" stroke="#FFFFFF" stroke-width="6" stroke-linecap="round"/>
    <path d="M309 131L286 114" stroke="#FFFFFF" stroke-width="6" stroke-linecap="round"/>
    <path d="M251 123C279 105 314 101 346 109" stroke="#173328" stroke-width="5" stroke-dasharray="8 10" stroke-linecap="round"/>
    <path d="M252 123L278 113" stroke="#173328" stroke-width="5" stroke-linecap="round"/>
    <path d="M346 109L325 93" stroke="#173328" stroke-width="5" stroke-linecap="round"/>
    <circle cx="294" cy="40" r="12" fill="#D8FFE9"/>
    <circle cx="116" cy="142" r="8" stroke="#173328" stroke-width="4"/>
    <circle cx="86" cy="84" r="8" stroke="#173328" stroke-width="4"/>
    <path d="M87 114H99" stroke="#D8FFE9" stroke-width="4" stroke-linecap="round"/>
    <path d="M93 108V120" stroke="#D8FFE9" stroke-width="4" stroke-linecap="round"/>
    <path d="M332 132H344" stroke="#D8FFE9" stroke-width="4" stroke-linecap="round"/>
    <path d="M338 126V138" stroke="#D8FFE9" stroke-width="4" stroke-linecap="round"/>
  </g>

  <g transform="translate(1010 355)">
    <rect x="0" y="0" width="250" height="170" rx="6" fill="#FFFFFF"/>
    <rect x="18" y="18" width="60" height="42" rx="4" fill="#2EF09A" fill-opacity="0.2"/>
    <path d="M48 44L58 30L74 54H24L36 40L48 44Z" fill="#2EF09A"/>
    <circle cx="34" cy="28" r="6" fill="#2EF09A"/>
    <circle cx="52" cy="118" r="25" fill="#2EF09A" fill-opacity="0.18"/>
    <path d="M52 118L52 97A21 21 0 0 1 73 118Z" fill="#2EF09A"/>
    <rect x="107" y="92" width="18" height="46" rx="4" fill="#2EF09A" fill-opacity="0.32"/>
    <rect x="136" y="75" width="18" height="63" rx="4" fill="#2EF09A" fill-opacity="0.55"/>
    <rect x="165" y="58" width="18" height="80" rx="4" fill="#2EF09A"/>
    <circle cx="45" cy="150" r="5" fill="#2EF09A"/>
    <circle cx="65" cy="150" r="5" fill="#2EF09A"/>
    <circle cx="85" cy="150" r="5" fill="#2EF09A"/>
    <path d="M108 29H210" stroke="#8C99AD" stroke-width="6" stroke-linecap="round"/>
    <path d="M108 47H194" stroke="#8C99AD" stroke-width="6" stroke-linecap="round"/>
    <path d="M108 65H180" stroke="#8C99AD" stroke-width="6" stroke-linecap="round"/>
  </g>

  <g transform="translate(1365 382)">
    <path d="M0 106C0 52 44 8 98 8C152 8 196 52 196 106V171H162V106C162 71 133 42 98 42C63 42 34 71 34 106V171H0V106Z" fill="#F7FFF9"/>
    <path d="M0 112C0 58 44 14 98 14C152 14 196 58 196 112" stroke="#2EF09A" stroke-width="10"/>
    <rect x="8" y="122" width="42" height="84" rx="21" fill="#2EF09A"/>
    <rect x="146" y="122" width="42" height="84" rx="21" fill="#2EF09A"/>
    <rect x="26" y="138" width="16" height="52" rx="8" fill="#18231E"/>
    <rect x="154" y="138" width="16" height="52" rx="8" fill="#18231E"/>
    <path d="M118 199C118 218 102 234 83 234H58" stroke="#E8FFF4" stroke-width="8" stroke-linecap="round"/>
    <rect x="24" y="226" width="48" height="22" rx="11" fill="#2EF09A"/>
  </g>

  <g fill="#F5F7FB" font-family="Inter, Arial, sans-serif">
    <text x="278" y="620" font-size="44" font-weight="600" opacity="0.64">Audit zdarma</text>
    <text x="190" y="680" font-size="60" font-weight="700">Základní PDF report</text>
    <text x="195" y="763" font-size="34" font-weight="400" opacity="0.58">Doporučení dalšího postupu pro</text>
    <text x="244" y="813" font-size="34" font-weight="400" opacity="0.58">samostatné rozhodování.</text>

    <text x="1110" y="620" font-size="44" font-weight="600">Express Audit</text>
    <text x="925" y="680" font-size="60" font-weight="700">Komplexní report + Osobní kontakt</text>
  </g>

  <g fill="#F5F7FB" font-family="Inter, Arial, sans-serif" font-size="34" font-weight="400" opacity="0.82">
    <circle cx="947" cy="770" r="7" fill="#F5F7FB"/>
    <text x="980" y="782">Krátký akční plán (co opravit hned vs.</text>
    <text x="980" y="832">později, odhady času a ceny).</text>

    <circle cx="947" cy="892" r="7" fill="#F5F7FB"/>
    <text x="980" y="904">15minutová konzultace pro okamžité</text>
    <text x="980" y="954">rozhodnutí nad dalším zásahem.</text>
  </g>
</svg>
