<svg width="1792" height="804" viewBox="0 0 1792 804" fill="none" xmlns="http://www.w3.org/2000/svg">
  <defs>
    <linearGradient id="bg" x1="96" y1="44" x2="1672" y2="770" gradientUnits="userSpaceOnUse">
      <stop stop-color="#171C24"/>
      <stop offset="1" stop-color="#0A0E14"/>
    </linearGradient>
    <linearGradient id="funnelStroke" x1="301" y1="338" x2="1552" y2="338" gradientUnits="userSpaceOnUse">
      <stop stop-color="#8BFFF2" stop-opacity="0.5"/>
      <stop offset="0.5" stop-color="#F6FFFF" stop-opacity="0.26"/>
      <stop offset="1" stop-color="#E4FFF9" stop-opacity="0.54"/>
    </linearGradient>
    <filter id="tealGlow" x="0" y="0" width="620" height="320" filterUnits="userSpaceOnUse" color-interpolation-filters="sRGB">
      <feGaussianBlur stdDeviation="18"/>
    </filter>
    <filter id="crackGlow" x="440" y="126" width="1010" height="410" filterUnits="userSpaceOnUse" color-interpolation-filters="sRGB">
      <feGaussianBlur stdDeviation="8"/>
    </filter>
  </defs>

  <rect width="1792" height="804" fill="url(#bg)"/>

  <g opacity="0.12" stroke="#DCE5F3" stroke-width="2">
    <path d="M0 37H1792"/>
    <path d="M0 214H1792"/>
    <path d="M0 390H1792"/>
    <path d="M0 567H1792"/>
    <path d="M0 744H1792"/>
    <path d="M11 0V804"/>
    <path d="M266 0V804"/>
    <path d="M532 0V804"/>
    <path d="M1045 0V804"/>
    <path d="M1569 0V804"/>
  </g>

  <rect x="47" y="53" width="422" height="158" rx="10" fill="#22363B" fill-opacity="0.72" stroke="#53F2E5" stroke-width="4"/>
  <rect x="47" y="53" width="422" height="158" rx="10" fill="#4BFFF1" fill-opacity="0.1" filter="url(#tealGlow)"/>
  <path d="M97 53H202L209 43H291L298 53" stroke="#53F2E5" stroke-width="6" stroke-linecap="round" stroke-linejoin="round"/>
  <path d="M138 211V309H269" stroke="#53F2E5" stroke-width="5" stroke-linecap="round" stroke-linejoin="round"/>
  <path d="M174 327H291" stroke="#53F2E5" stroke-width="5" stroke-linecap="round"/>
  <path d="M265 308L306 327L265 346" fill="none" stroke="#53F2E5" stroke-width="5" stroke-linecap="round" stroke-linejoin="round"/>

  <g font-family="Inter, Arial, sans-serif" fill="#F5F7FB">
    <text x="74" y="104" font-size="31" font-weight="500">Nejdřív najdeme <tspan fill="#53F2E5" font-weight="700">kritické</tspan></text>
    <text x="74" y="145" font-size="31" font-weight="700" fill="#53F2E5">místo, <tspan fill="#F5F7FB" font-weight="500">pak opravíme to, co</tspan></text>
    <text x="74" y="186" font-size="31" font-weight="500">má největší dopad.</text>
  </g>

  <g stroke="url(#funnelStroke)" stroke-width="3" stroke-linecap="round" stroke-linejoin="round" opacity="0.64">
    <ellipse cx="303" cy="332" rx="48" ry="151"/>
    <ellipse cx="646" cy="334" rx="23" ry="110"/>
    <ellipse cx="998" cy="334" rx="22" ry="82"/>
    <ellipse cx="1383" cy="334" rx="16" ry="61"/>
    <ellipse cx="1551" cy="334" rx="16" ry="61"/>

    <path d="M303 181L1383 273"/>
    <path d="M303 198L1383 286"/>
    <path d="M303 215L1383 298"/>
    <path d="M303 233L1383 309"/>
    <path d="M303 252L1383 320"/>
    <path d="M303 272L1383 330"/>
    <path d="M303 292L1383 339"/>
    <path d="M303 312L1383 348"/>
    <path d="M303 332L1383 357"/>
    <path d="M303 352L1383 366"/>
    <path d="M303 372L1383 374"/>
    <path d="M303 392L1383 382"/>
    <path d="M303 412L1383 390"/>
    <path d="M303 430L1383 397"/>
    <path d="M303 447L1383 404"/>
    <path d="M303 464L1383 410"/>

    <path d="M1383 273L1551 273"/>
    <path d="M1383 286L1551 286"/>
    <path d="M1383 298L1551 298"/>
    <path d="M1383 309L1551 309"/>
    <path d="M1383 320L1551 320"/>
    <path d="M1383 330L1551 330"/>
    <path d="M1383 339L1551 339"/>
    <path d="M1383 348L1551 348"/>
    <path d="M1383 357L1551 357"/>
    <path d="M1383 366L1551 366"/>
    <path d="M1383 374L1551 374"/>
    <path d="M1383 382L1551 382"/>
    <path d="M1383 390L1551 390"/>
    <path d="M1383 397L1551 397"/>
    <path d="M1383 404L1551 404"/>
    <path d="M1383 410L1551 410"/>
  </g>

  <g opacity="0.34" stroke="#E6FFF9" stroke-width="9" stroke-linecap="round">
    <path d="M295 326H1554"/>
    <path d="M295 341H1554"/>
  </g>

  <g filter="url(#crackGlow)" opacity="0.95">
    <g stroke="#FF6B77" stroke-width="5" stroke-linecap="round" stroke-linejoin="round">
      <path d="M528 164L537 189L530 213L542 238L532 261L544 286L531 312L542 338L530 366L539 392L530 422L536 453L529 483"/>
      <path d="M991 196L999 219L992 241L1003 264L994 288L1004 312L994 337L1002 360L993 384L999 410"/>
      <path d="M1367 237L1375 259L1368 280L1378 302L1370 324L1378 347L1370 371L1375 395"/>
    </g>
    <g stroke="#FF98A2" stroke-width="2.5" stroke-linecap="round">
      <path d="M521 246L492 223"/>
      <path d="M540 323L570 304"/>
      <path d="M529 395L499 387"/>
      <path d="M1000 262L1031 243"/>
      <path d="M992 337L966 321"/>
      <path d="M1373 300L1403 282"/>
      <path d="M1369 344L1338 325"/>
    </g>
    <g fill="#FF727E" fill-opacity="0.78">
      <circle cx="547" cy="96" r="5"/>
      <circle cx="516" cy="152" r="5"/>
      <circle cx="493" cy="103" r="4"/>
      <circle cx="551" cy="503" r="4"/>
      <circle cx="507" cy="476" r="4"/>
      <circle cx="1017" cy="194" r="4"/>
      <circle cx="959" cy="224" r="4"/>
      <circle cx="1015" cy="425" r="4"/>
      <circle cx="970" cy="445" r="4"/>
      <circle cx="1384" cy="221" r="4"/>
      <circle cx="1344" cy="250" r="4"/>
      <circle cx="1392" cy="406" r="4"/>
      <circle cx="1349" cy="389" r="4"/>
    </g>
  </g>

  <g stroke="#D06D77" stroke-width="2.5" stroke-linecap="round" stroke-linejoin="round">
    <path d="M607 130H845"/>
    <path d="M607 130L561 177"/>
    <path d="M1110 181H1324"/>
    <path d="M1110 181L1037 245"/>
    <path d="M1468 232H1676"/>
    <path d="M1468 232L1400 289"/>
  </g>

  <g font-family="Inter, Arial, sans-serif" fill="#F5F7FB">
    <text x="645" y="110" font-size="31" font-weight="500">Chyba měření</text>
    <text x="1118" y="162" font-size="31" font-weight="500">Ztráta důvěry</text>
    <text x="1507" y="214" font-size="31" font-weight="500">Tření v checkoutu</text>

    <text x="375" y="358" font-size="38" font-weight="600">Traffic</text>
    <text x="615" y="358" font-size="38" font-weight="600">Landing Page</text>
    <text x="1068" y="358" font-size="38" font-weight="600">Cart</text>
    <text x="1427" y="358" font-size="38" font-weight="600">Checkout</text>
  </g>

  <g font-family="Inter, Arial, sans-serif" fill="#F5F7FB" text-anchor="middle">
    <text x="896" y="690" font-size="34" font-weight="500">Hledám, kudy utíkají objednávky, data nebo důvěra v prvních vteřinách nákupní cesty.</text>
    <text x="896" y="744" font-size="34" font-weight="500">Neřeším dekoraci, ale rychlou orientaci a zásah s reálným dopadem na konverzi.</text>
  </g>
</svg>
